# xmcd
#
# Track frame offsets:
#	150
#	23597
#	49417
#	68291
#	109209
#
# Disc length: 1976 seconds
#
# Revision: 0
# Processed by: cddbd v1.5.2PL0 Copyright (c) Steve Scherf et al.
# Submitted via: EZCDAudioConverter 1.3.4.1
#
DISCID=3707b605
DTITLE=Black Hippies - Black Hippies (1977)
DYEAR=1900
DGENRE=
TTITLE0=Doing It In The Street
TTITLE1=I Have The Love On You
TTITLE2=Love
TTITLE3=The World Is Great
TTITLE4=You Are My Witness
EXTD=
EXTT0=
EXTT1=
EXTT2=
EXTT3=
EXTT4=
PLAYORDER=
